<mxfile host="app.diagrams.net" agent="Mozilla/5.0 (X11; Linux x86_64; rv:135.0) Gecko/20100101 Firefox/135.0" version="26.0.16">
  <diagram id="7gcUSTIZ7YSJ5vT40chW" name="Page-1">
    <mxGraphModel dx="1687" dy="1759" grid="1" gridSize="10" guides="1" tooltips="1" connect="1" arrows="1" fold="1" page="1" pageScale="1" pageWidth="1169" pageHeight="827" math="0" shadow="0">
      <root>
        <mxCell id="0" />
        <mxCell id="1" parent="0" />
        <mxCell id="sH0vGf5td1xnZKwWSIzx-3" value="" style="rounded=1;whiteSpace=wrap;html=1;fillColor=#dae8fc;strokeColor=#6c8ebf;" vertex="1" parent="1">
          <mxGeometry x="1740" y="-50" width="500" height="390" as="geometry" />
        </mxCell>
        <mxCell id="sH0vGf5td1xnZKwWSIzx-4" value="" style="rounded=1;whiteSpace=wrap;html=1;fillColor=#fff2cc;strokeColor=#d6b656;" vertex="1" parent="1">
          <mxGeometry x="1743.22" y="390" width="506.78" height="400" as="geometry" />
        </mxCell>
        <mxCell id="sH0vGf5td1xnZKwWSIzx-6" value="" style="rounded=1;whiteSpace=wrap;html=1;fillColor=#f5f5f5;fontColor=#333333;strokeColor=#666666;" vertex="1" parent="1">
          <mxGeometry x="990" y="-50" width="430" height="840" as="geometry" />
        </mxCell>
        <mxCell id="sH0vGf5td1xnZKwWSIzx-7" value="" style="shape=image;verticalLabelPosition=bottom;labelBackgroundColor=#ffffff;verticalAlign=top;aspect=fixed;imageAspect=0;image=data:image/svg+xml,PHN2ZyB4bWxuczpkYz0iaHR0cDovL3B1cmwub3JnL2RjL2VsZW1lbnRzLzEuMS8iIHhtbG5zOmNjPSJodHRwOi8vY3JlYXRpdmVjb21tb25zLm9yZy9ucyMiIHhtbG5zOnJkZj0iaHR0cDovL3d3dy53My5vcmcvMTk5OS8wMi8yMi1yZGYtc3ludGF4LW5zIyIgeG1sbnM6c3ZnPSJodHRwOi8vd3d3LnczLm9yZy8yMDAwL3N2ZyIgeG1sbnM9Imh0dHA6Ly93d3cudzMub3JnLzIwMDAvc3ZnIiB4bWxuczp4bGluaz0iaHR0cDovL3d3dy53My5vcmcvMTk5OS94bGluayIgeG1sbnM6c29kaXBvZGk9Imh0dHA6Ly9zb2RpcG9kaS5zb3VyY2Vmb3JnZS5uZXQvRFREL3NvZGlwb2RpLTAuZHRkIiB4bWxuczppbmtzY2FwZT0iaHR0cDovL3d3dy5pbmtzY2FwZS5vcmcvbmFtZXNwYWNlcy9pbmtzY2FwZSIgdmVyc2lvbj0iMS4xIiBpZD0iTGF5ZXJfMSIgeD0iMHB4IiB5PSIwcHgiIHZpZXdCb3g9IjAgMCA0NC4yMTk5OTcgNDUuNzc5OTk5IiB4bWw6c3BhY2U9InByZXNlcnZlIiBzb2RpcG9kaTpkb2NuYW1lPSJhenVyZV9kYXRhYnJpY2tzLnN2ZyIgd2lkdGg9IjQ0LjIxOTk5NyIgaGVpZ2h0PSI0NS43Nzk5OTkiIGlua3NjYXBlOnZlcnNpb249IjAuOTIuMyAoMjQwNTU0NiwgMjAxOC0wMy0xMSkiPjxtZXRhZGF0YSBpZD0ibWV0YWRhdGEzMDcwMyI+PHJkZjpSREY+PGNjOldvcmsgcmRmOmFib3V0PSIiPjxkYzpmb3JtYXQ+aW1hZ2Uvc3ZnK3htbDwvZGM6Zm9ybWF0PjxkYzp0eXBlIHJkZjpyZXNvdXJjZT0iaHR0cDovL3B1cmwub3JnL2RjL2RjbWl0eXBlL1N0aWxsSW1hZ2UiLz48ZGM6dGl0bGUvPjwvY2M6V29yaz48L3JkZjpSREY+PC9tZXRhZGF0YT48ZGVmcyBpZD0iZGVmczMwNzAxIi8+PHNvZGlwb2RpOm5hbWVkdmlldyBwYWdlY29sb3I9IiNmZmZmZmYiIGJvcmRlcmNvbG9yPSIjNjY2NjY2IiBib3JkZXJvcGFjaXR5PSIxIiBvYmplY3R0b2xlcmFuY2U9IjEwIiBncmlkdG9sZXJhbmNlPSIxMCIgZ3VpZGV0b2xlcmFuY2U9IjEwIiBpbmtzY2FwZTpwYWdlb3BhY2l0eT0iMCIgaW5rc2NhcGU6cGFnZXNoYWRvdz0iMiIgaW5rc2NhcGU6d2luZG93LXdpZHRoPSIxOTIwIiBpbmtzY2FwZTp3aW5kb3ctaGVpZ2h0PSIxMDE3IiBpZD0ibmFtZWR2aWV3MzA2OTkiIHNob3dncmlkPSJmYWxzZSIgZml0LW1hcmdpbi10b3A9IjAiIGZpdC1tYXJnaW4tbGVmdD0iMCIgZml0LW1hcmdpbi1yaWdodD0iMCIgZml0LW1hcmdpbi1ib3R0b209IjAiIGlua3NjYXBlOnpvb209IjEuMDMwMzAzIiBpbmtzY2FwZTpjeD0iMjQwLjA4NSIgaW5rc2NhcGU6Y3k9Ii0xNzcuMzkiIGlua3NjYXBlOndpbmRvdy14PSItOCIgaW5rc2NhcGU6d2luZG93LXk9Ii04IiBpbmtzY2FwZTp3aW5kb3ctbWF4aW1pemVkPSIxIiBpbmtzY2FwZTpjdXJyZW50LWxheWVyPSJMYXllcl8xIi8+JiN4YTsmI3hhOzxnIGlkPSJnMzA2OTYiIHRyYW5zZm9ybT0idHJhbnNsYXRlKC01Ny4yOTAwMDEsLTE5Ny41OCkiPiYjeGE7CTxkZWZzIGlkPSJkZWZzMzA2NzUiPiYjeGE7CQk8cmVjdCBpZD0iU1ZHSURfM18iIHg9IjU3LjI5MDAwMSIgeT0iMTk3LjU4IiB3aWR0aD0iNDUuMzMwMDAyIiBoZWlnaHQ9IjQ4LjE2Ii8+JiN4YTsJPC9kZWZzPiYjeGE7CTxjbGlwUGF0aCBpZD0iU1ZHSURfNF8iPiYjeGE7CQk8dXNlIHhsaW5rOmhyZWY9IiNTVkdJRF8zXyIgc3R5bGU9Im92ZXJmbG93OnZpc2libGUiIGlkPSJ1c2UzMDY3NyIgeD0iMCIgeT0iMCIgd2lkdGg9IjEwMCUiIGhlaWdodD0iMTAwJSIvPiYjeGE7CTwvY2xpcFBhdGg+JiN4YTsJPGcgY2xpcC1wYXRoPSJ1cmwoI1NWR0lEXzRfKSIgaWQ9ImczMDY5NCI+JiN4YTsJCTxkZWZzIGlkPSJkZWZzMzA2ODEiPiYjeGE7CQkJPHJlY3QgaWQ9IlNWR0lEXzVfIiB4PSI1Ny4yOTAwMDEiIHk9IjE5Ny41OCIgd2lkdGg9IjQ1LjMzMDAwMiIgaGVpZ2h0PSI0OC4xNiIvPiYjeGE7CQk8L2RlZnM+JiN4YTsJCTxjbGlwUGF0aCBpZD0iU1ZHSURfNl8iPiYjeGE7CQkJPHVzZSB4bGluazpocmVmPSIjU1ZHSURfNV8iIHN0eWxlPSJvdmVyZmxvdzp2aXNpYmxlIiBpZD0idXNlMzA2ODMiIHg9IjAiIHk9IjAiIHdpZHRoPSIxMDAlIiBoZWlnaHQ9IjEwMCUiLz4mI3hhOwkJPC9jbGlwUGF0aD4mI3hhOwkJPHBvbHlnb24gc3R5bGU9ImZpbGw6I2RjMjEyNiIgcG9pbnRzPSI3OS40NiwyNDMuMzYgNTcuMjksMjMxLjMyIDU3LjI5LDIyNC4wMSA3OS40LDIxMi42MiAxMDEuNDUsMjI0LjAxIDEwMS40NSwyMzEuMzIgIiBjbGlwLXBhdGg9InVybCgjU1ZHSURfNl8pIiBpZD0icG9seWdvbjMwNjg2Ii8+JiN4YTsJCTxwb2x5Z29uIHN0eWxlPSJmaWxsOiNmMDU0MmQiIHBvaW50cz0iNzkuNCwyMzUuNTcgNTcuMjksMjI0LjAxIDc5LjQsMjEyLjYyIDEwMS41MSwyMjQuMDEgIiBjbGlwLXBhdGg9InVybCgjU1ZHSURfNl8pIiBpZD0icG9seWdvbjMwNjg4Ii8+JiN4YTsJCTxwb2x5Z29uIHN0eWxlPSJmaWxsOiNkYzIxMjYiIHBvaW50cz0iNzkuNDYsMjI4LjMyIDU3LjI5LDIxNi4yOCA1Ny4yOSwyMDguOTYgNzkuNCwxOTcuNTggMTAxLjQ1LDIwOC45NiAxMDEuNDUsMjE2LjI4ICIgY2xpcC1wYXRoPSJ1cmwoI1NWR0lEXzZfKSIgaWQ9InBvbHlnb24zMDY5MCIvPiYjeGE7CQk8cG9seWdvbiBzdHlsZT0iZmlsbDojZjA1NDJkIiBwb2ludHM9Ijc5LjQsMjIwLjUzIDU3LjI5LDIwOC45NiA3OS40LDE5Ny41OCAxMDEuNTEsMjA4Ljk2ICIgY2xpcC1wYXRoPSJ1cmwoI1NWR0lEXzZfKSIgaWQ9InBvbHlnb24zMDY5MiIvPiYjeGE7CTwvZz4mI3hhOzwvZz4mI3hhOzwvc3ZnPg==;" vertex="1" parent="1">
          <mxGeometry x="1983.22" y="140" width="53.57" height="56" as="geometry" />
        </mxCell>
        <mxCell id="sH0vGf5td1xnZKwWSIzx-9" value="Databricks" style="text;html=1;align=center;verticalAlign=middle;whiteSpace=wrap;rounded=0;" vertex="1" parent="1">
          <mxGeometry x="1912.5" y="155.5" width="60" height="30" as="geometry" />
        </mxCell>
        <mxCell id="sH0vGf5td1xnZKwWSIzx-12" value="On Prem" style="text;html=1;align=center;verticalAlign=middle;whiteSpace=wrap;rounded=0;fontSize=24;" vertex="1" parent="1">
          <mxGeometry x="1169" y="-100" width="141" height="40" as="geometry" />
        </mxCell>
        <mxCell id="sH0vGf5td1xnZKwWSIzx-14" value="" style="editableCssRules=.*;html=1;shape=image;verticalLabelPosition=bottom;labelBackgroundColor=#ffffff;verticalAlign=top;aspect=fixed;imageAspect=0;image=data:image/svg+xml,PHN2ZyB4bWxucz0iaHR0cDovL3d3dy53My5vcmcvMjAwMC9zdmciIHhtbG5zOnY9Imh0dHBzOi8vdmVjdGEuaW8vbmFubyIgd2lkdGg9IjE4LjMxOTk5OTY5NDgyNDIyIiBoZWlnaHQ9IjIwLjAwMDAwMTkwNzM0ODYzMyIgdmlld0JveD0iMCAwIDE4LjMxOTk5OTY5NDgyNDIyIDIwLjAwMDAwMTkwNzM0ODYzMyI+JiN4YTsJPHN0eWxlIHR5cGU9InRleHQvY3NzIj4mI3hhOwkuc3Qwe2ZpbGw6IzY2OWRmNjt9JiN4YTsJLnN0MXtmaWxsOiM0Mjg1ZjQ7fSYjeGE7CS5zdDJ7ZmlsbDojYWVjYmZhO30mI3hhOwk8L3N0eWxlPiYjeGE7CTxkZWZzPiYjeGE7CQk8ZmlsdGVyIGlkPSJBIiB4PSI0LjY0IiB5PSI0LjE5IiB3aWR0aD0iMTQuNzMiIGhlaWdodD0iMTIuNzYiIGZpbHRlclVuaXRzPSJ1c2VyU3BhY2VPblVzZSIgY29sb3ItaW50ZXJwb2xhdGlvbi1maWx0ZXJzPSJzUkdCIj4mI3hhOwkJCTxmZUZsb29kIGZsb29kLWNvbG9yPSIjZmZmIi8+JiN4YTsJCQk8ZmVCbGVuZCBpbj0iU291cmNlR3JhcGhpYyIvPiYjeGE7CQk8L2ZpbHRlcj4mI3hhOwkJPG1hc2sgaWQ9IkIiIHg9IjQuNjQiIHk9IjQuMTkiIHdpZHRoPSIxNC43MyIgaGVpZ2h0PSIxMi43NiIgbWFza1VuaXRzPSJ1c2VyU3BhY2VPblVzZSI+JiN4YTsJCQk8Y2lyY2xlIGN4PSIxMiIgY3k9IjEyLjIzIiByPSIzLjU4IiBmaWx0ZXI9InVybCgjQSkiLz4mI3hhOwkJPC9tYXNrPiYjeGE7CTwvZGVmcz4mI3hhOwk8ZyBjbGFzcz0ic3QwIj4mI3hhOwkJPGNpcmNsZSBjeD0iMTYuMTMiIGN5PSI2LjIxIiByPSIxLjcyIi8+JiN4YTsJCTxjaXJjbGUgY3g9IjIuMTkiIGN5PSI2LjIxIiByPSIxLjcyIi8+JiN4YTsJCTxjaXJjbGUgY3g9IjkuMTYiIGN5PSIxOC4yOCIgcj0iMS43MiIvPiYjeGE7CTwvZz4mI3hhOwk8ZyBtYXNrPSJ1cmwoI0IpIiB0cmFuc2Zvcm09InRyYW5zbGF0ZSgtMi44NCAtMikiPiYjeGE7CQk8cGF0aCB0cmFuc2Zvcm09Im1hdHJpeCguNSAtLjg3IC44NyAuNSAtNC41OSAyMC41MykiIGQ9Ik0xNC42OSAxMC4yMmgxLjU5djguMDRoLTEuNTl6IiBjbGFzcz0ic3QxIi8+JiN4YTsJCTxwYXRoIHRyYW5zZm9ybT0icm90YXRlKDMzMCA4LjUyMyAxNC4yNDQpIiBkPSJNNC40OSAxMy40NWg4LjA0djEuNTlINC40OXoiIGNsYXNzPSJzdDEiLz4mI3hhOwkJPHBhdGggZD0iTTExLjIgNC4xOWgxLjU5djguMDRIMTEuMnoiIGNsYXNzPSJzdDEiLz4mI3hhOwk8L2c+JiN4YTsJPGcgY2xhc3M9InN0MiI+JiN4YTsJCTxjaXJjbGUgY3g9IjkuMTYiIGN5PSIxMC4yMyIgcj0iMi43OCIvPiYjeGE7CQk8Y2lyY2xlIGN4PSIyLjE5IiBjeT0iMTQuMjUiIHI9IjIuMTkiLz4mI3hhOwkJPGNpcmNsZSBjeD0iMTYuMTMiIGN5PSIxNC4yNSIgcj0iMi4xOSIvPiYjeGE7CQk8Y2lyY2xlIGN4PSI5LjE2IiBjeT0iMi4xOSIgcj0iMi4xOSIvPiYjeGE7CTwvZz4mI3hhOzwvc3ZnPg==;" vertex="1" parent="1">
          <mxGeometry x="2080" y="630" width="81" height="90" as="geometry" />
        </mxCell>
        <mxCell id="sH0vGf5td1xnZKwWSIzx-15" value="Pub/Sub" style="text;html=1;align=center;verticalAlign=middle;whiteSpace=wrap;rounded=0;" vertex="1" parent="1">
          <mxGeometry x="2161" y="630" width="60" height="30" as="geometry" />
        </mxCell>
        <mxCell id="sH0vGf5td1xnZKwWSIzx-16" value="" style="image;aspect=fixed;html=1;points=[];align=center;fontSize=12;image=img/lib/azure2/analytics/Azure_Synapse_Analytics.svg;" vertex="1" parent="1">
          <mxGeometry x="1980" width="60" height="69" as="geometry" />
        </mxCell>
        <mxCell id="sH0vGf5td1xnZKwWSIzx-17" value="Synapse" style="text;html=1;align=center;verticalAlign=middle;whiteSpace=wrap;rounded=0;" vertex="1" parent="1">
          <mxGeometry x="1980" y="-30" width="60" height="30" as="geometry" />
        </mxCell>
        <mxCell id="sH0vGf5td1xnZKwWSIzx-18" value="" style="shape=flexArrow;endArrow=classic;html=1;rounded=0;fillColor=#d5e8d4;strokeColor=#82b366;" edge="1" parent="1" source="sH0vGf5td1xnZKwWSIzx-16" target="sH0vGf5td1xnZKwWSIzx-19">
          <mxGeometry width="50" height="50" relative="1" as="geometry">
            <mxPoint x="1670" y="250" as="sourcePoint" />
            <mxPoint x="1610" y="30" as="targetPoint" />
          </mxGeometry>
        </mxCell>
        <mxCell id="sH0vGf5td1xnZKwWSIzx-19" value="" style="verticalLabelPosition=bottom;html=1;verticalAlign=top;align=center;strokeColor=none;fillColor=#00BEF2;shape=mxgraph.azure.virtual_machine;" vertex="1" parent="1">
          <mxGeometry x="1250" y="120" width="140" height="100" as="geometry" />
        </mxCell>
        <mxCell id="sH0vGf5td1xnZKwWSIzx-21" value="" style="shape=flexArrow;endArrow=classic;html=1;rounded=0;fillColor=#d5e8d4;strokeColor=#82b366;exitX=0.01;exitY=0.01;exitDx=0;exitDy=0;exitPerimeter=0;" edge="1" parent="1" source="sH0vGf5td1xnZKwWSIzx-19" target="sH0vGf5td1xnZKwWSIzx-67">
          <mxGeometry width="50" height="50" relative="1" as="geometry">
            <mxPoint x="1950" y="144.5" as="sourcePoint" />
            <mxPoint x="1330" y="145.5" as="targetPoint" />
          </mxGeometry>
        </mxCell>
        <mxCell id="sH0vGf5td1xnZKwWSIzx-23" value="" style="shape=flexArrow;endArrow=classic;html=1;rounded=0;fillColor=#d5e8d4;strokeColor=#82b366;entryX=0.01;entryY=0.99;entryDx=0;entryDy=0;entryPerimeter=0;exitX=1;exitY=0.75;exitDx=0;exitDy=0;" edge="1" parent="1" source="sH0vGf5td1xnZKwWSIzx-67" target="sH0vGf5td1xnZKwWSIzx-19">
          <mxGeometry width="50" height="50" relative="1" as="geometry">
            <mxPoint x="1280" y="78" as="sourcePoint" />
            <mxPoint x="1195" y="138" as="targetPoint" />
          </mxGeometry>
        </mxCell>
        <mxCell id="sH0vGf5td1xnZKwWSIzx-25" value="1" style="ellipse;whiteSpace=wrap;html=1;aspect=fixed;rotation=0;strokeColor=#82b366;gradientDirection=east;fillColor=#d5e8d4;rounded=0;pointerEvents=0;fontFamily=Helvetica;fontSize=16;spacingTop=4;spacingBottom=4;spacingLeft=4;spacingRight=4;points=[];fontStyle=1" vertex="1" parent="1">
          <mxGeometry x="1550" y="78.5" width="30" height="30" as="geometry" />
        </mxCell>
        <mxCell id="sH0vGf5td1xnZKwWSIzx-26" value="2" style="ellipse;whiteSpace=wrap;html=1;aspect=fixed;rotation=0;strokeColor=#82b366;gradientDirection=east;fillColor=#d5e8d4;rounded=0;pointerEvents=0;fontFamily=Helvetica;fontSize=16;spacingTop=4;spacingBottom=4;spacingLeft=4;spacingRight=4;points=[];fontStyle=1" vertex="1" parent="1">
          <mxGeometry x="1550" y="185.5" width="30" height="30" as="geometry" />
        </mxCell>
        <mxCell id="sH0vGf5td1xnZKwWSIzx-28" value="" style="shape=flexArrow;endArrow=classic;html=1;rounded=0;fillColor=#d5e8d4;strokeColor=#82b366;exitX=0.99;exitY=0.99;exitDx=0;exitDy=0;exitPerimeter=0;" edge="1" parent="1" source="sH0vGf5td1xnZKwWSIzx-19" target="sH0vGf5td1xnZKwWSIzx-16">
          <mxGeometry width="50" height="50" relative="1" as="geometry">
            <mxPoint x="1963.11" y="73" as="sourcePoint" />
            <mxPoint x="1343.11" y="115" as="targetPoint" />
          </mxGeometry>
        </mxCell>
        <mxCell id="sH0vGf5td1xnZKwWSIzx-29" value="3" style="ellipse;whiteSpace=wrap;html=1;aspect=fixed;rotation=0;strokeColor=#82b366;gradientDirection=east;fillColor=#d5e8d4;rounded=0;pointerEvents=0;fontFamily=Helvetica;fontSize=16;spacingTop=4;spacingBottom=4;spacingLeft=4;spacingRight=4;points=[];fontStyle=1" vertex="1" parent="1">
          <mxGeometry x="1972.5" y="90" width="30" height="30" as="geometry" />
        </mxCell>
        <mxCell id="sH0vGf5td1xnZKwWSIzx-31" value="" style="shape=image;verticalLabelPosition=bottom;labelBackgroundColor=default;verticalAlign=top;aspect=fixed;imageAspect=0;image=https://mediaresource.sfo2.digitaloceanspaces.com/wp-content/uploads/2024/04/27165408/dbt-logo-E4B0ED72A2-seeklogo.com.png;" vertex="1" parent="1">
          <mxGeometry x="2140" y="150.5" width="91.3" height="35" as="geometry" />
        </mxCell>
        <mxCell id="sH0vGf5td1xnZKwWSIzx-32" value="" style="shape=flexArrow;endArrow=classic;html=1;rounded=0;fillColor=#d5e8d4;strokeColor=#82b366;exitX=1.041;exitY=0.143;exitDx=0;exitDy=0;exitPerimeter=0;" edge="1" parent="1" source="sH0vGf5td1xnZKwWSIzx-7" target="sH0vGf5td1xnZKwWSIzx-31">
          <mxGeometry width="50" height="50" relative="1" as="geometry">
            <mxPoint x="1616" y="288" as="sourcePoint" />
            <mxPoint x="2240" y="340" as="targetPoint" />
          </mxGeometry>
        </mxCell>
        <mxCell id="sH0vGf5td1xnZKwWSIzx-33" value="" style="shape=flexArrow;endArrow=classic;html=1;rounded=0;fillColor=#d5e8d4;strokeColor=#82b366;exitX=0;exitY=1;exitDx=0;exitDy=0;entryX=1;entryY=1;entryDx=0;entryDy=0;" edge="1" parent="1" source="sH0vGf5td1xnZKwWSIzx-31" target="sH0vGf5td1xnZKwWSIzx-7">
          <mxGeometry width="50" height="50" relative="1" as="geometry">
            <mxPoint x="2048.11" y="210" as="sourcePoint" />
            <mxPoint x="2139.11" y="223" as="targetPoint" />
          </mxGeometry>
        </mxCell>
        <mxCell id="sH0vGf5td1xnZKwWSIzx-34" value="4" style="ellipse;whiteSpace=wrap;html=1;aspect=fixed;rotation=0;strokeColor=#82b366;gradientDirection=east;fillColor=#d5e8d4;rounded=0;pointerEvents=0;fontFamily=Helvetica;fontSize=16;spacingTop=4;spacingBottom=4;spacingLeft=4;spacingRight=4;points=[];fontStyle=1" vertex="1" parent="1">
          <mxGeometry x="2060" y="155.5" width="30" height="30" as="geometry" />
        </mxCell>
        <mxCell id="sH0vGf5td1xnZKwWSIzx-37" value="" style="shape=image;verticalLabelPosition=bottom;labelBackgroundColor=default;verticalAlign=top;aspect=fixed;imageAspect=0;image=https://www.svgrepo.com/show/376321/google-gke.svg;" vertex="1" parent="1">
          <mxGeometry x="1945" y="440" width="90" height="90" as="geometry" />
        </mxCell>
        <mxCell id="sH0vGf5td1xnZKwWSIzx-38" value="GKE" style="text;html=1;align=center;verticalAlign=middle;whiteSpace=wrap;rounded=0;" vertex="1" parent="1">
          <mxGeometry x="1959.9999999999998" y="420" width="60" height="30" as="geometry" />
        </mxCell>
        <mxCell id="sH0vGf5td1xnZKwWSIzx-39" value="" style="shape=cylinder3;whiteSpace=wrap;html=1;boundedLbl=1;backgroundOutline=1;size=15;" vertex="1" parent="1">
          <mxGeometry x="1044" y="524.8" width="90" height="100" as="geometry" />
        </mxCell>
        <mxCell id="sH0vGf5td1xnZKwWSIzx-40" value="Database" style="text;html=1;align=center;verticalAlign=middle;whiteSpace=wrap;rounded=0;" vertex="1" parent="1">
          <mxGeometry x="1052.01" y="490" width="85" height="40" as="geometry" />
        </mxCell>
        <mxCell id="sH0vGf5td1xnZKwWSIzx-41" value="" style="shape=flexArrow;endArrow=classic;html=1;rounded=0;fillColor=#e1d5e7;strokeColor=#9673a6;" edge="1" parent="1" source="sH0vGf5td1xnZKwWSIzx-37" target="sH0vGf5td1xnZKwWSIzx-83">
          <mxGeometry width="50" height="50" relative="1" as="geometry">
            <mxPoint x="1201" y="300" as="sourcePoint" />
            <mxPoint x="1825" y="352" as="targetPoint" />
          </mxGeometry>
        </mxCell>
        <mxCell id="sH0vGf5td1xnZKwWSIzx-44" value="" style="shape=flexArrow;endArrow=classic;html=1;rounded=0;fillColor=#e1d5e7;strokeColor=#9673a6;exitX=1;exitY=1;exitDx=0;exitDy=-15;exitPerimeter=0;entryX=0;entryY=1;entryDx=0;entryDy=0;" edge="1" parent="1" source="sH0vGf5td1xnZKwWSIzx-39" target="sH0vGf5td1xnZKwWSIzx-83">
          <mxGeometry width="50" height="50" relative="1" as="geometry">
            <mxPoint x="1210" y="624" as="sourcePoint" />
            <mxPoint x="1225" y="663" as="targetPoint" />
          </mxGeometry>
        </mxCell>
        <mxCell id="sH0vGf5td1xnZKwWSIzx-47" value="1" style="ellipse;whiteSpace=wrap;html=1;aspect=fixed;rotation=0;strokeColor=#9673a6;gradientDirection=east;fillColor=#e1d5e7;rounded=0;pointerEvents=0;fontFamily=Helvetica;fontSize=16;spacingTop=4;spacingBottom=4;spacingLeft=4;spacingRight=4;points=[];fontStyle=1" vertex="1" parent="1">
          <mxGeometry x="1520" y="480" width="30" height="30" as="geometry" />
        </mxCell>
        <mxCell id="sH0vGf5td1xnZKwWSIzx-48" value="2" style="ellipse;whiteSpace=wrap;html=1;aspect=fixed;rotation=0;strokeColor=#9673a6;gradientDirection=east;fillColor=#e1d5e7;rounded=0;pointerEvents=0;fontFamily=Helvetica;fontSize=16;spacingTop=4;spacingBottom=4;spacingLeft=4;spacingRight=4;points=[];fontStyle=1" vertex="1" parent="1">
          <mxGeometry x="1520" y="570" width="30" height="30" as="geometry" />
        </mxCell>
        <mxCell id="sH0vGf5td1xnZKwWSIzx-49" value="" style="shape=flexArrow;endArrow=classic;html=1;rounded=0;fillColor=#e1d5e7;strokeColor=#9673a6;exitX=0.5;exitY=0;exitDx=0;exitDy=0;" edge="1" parent="1" source="sH0vGf5td1xnZKwWSIzx-14" target="sH0vGf5td1xnZKwWSIzx-7">
          <mxGeometry width="50" height="50" relative="1" as="geometry">
            <mxPoint x="1220" y="634" as="sourcePoint" />
            <mxPoint x="2090" y="683" as="targetPoint" />
          </mxGeometry>
        </mxCell>
        <mxCell id="sH0vGf5td1xnZKwWSIzx-50" value="3" style="ellipse;whiteSpace=wrap;html=1;aspect=fixed;rotation=0;strokeColor=#9673a6;gradientDirection=east;fillColor=#e1d5e7;rounded=0;pointerEvents=0;fontFamily=Helvetica;fontSize=16;spacingTop=4;spacingBottom=4;spacingLeft=4;spacingRight=4;points=[];fontStyle=1" vertex="1" parent="1">
          <mxGeometry x="2090" y="414" width="30" height="30" as="geometry" />
        </mxCell>
        <mxCell id="sH0vGf5td1xnZKwWSIzx-55" value="" style="shape=flexArrow;endArrow=classic;html=1;rounded=0;fillColor=#d5e8d4;strokeColor=#82b366;exitX=0.99;exitY=0.99;exitDx=0;exitDy=0;exitPerimeter=0;" edge="1" parent="1">
          <mxGeometry width="50" height="50" relative="1" as="geometry">
            <mxPoint x="400" y="270" as="sourcePoint" />
            <mxPoint x="650" y="272" as="targetPoint" />
          </mxGeometry>
        </mxCell>
        <mxCell id="sH0vGf5td1xnZKwWSIzx-56" value="" style="shape=flexArrow;endArrow=classic;html=1;rounded=0;fillColor=#e1d5e7;strokeColor=#9673a6;" edge="1" parent="1">
          <mxGeometry width="50" height="50" relative="1" as="geometry">
            <mxPoint x="400" y="370" as="sourcePoint" />
            <mxPoint x="650" y="370" as="targetPoint" />
          </mxGeometry>
        </mxCell>
        <mxCell id="sH0vGf5td1xnZKwWSIzx-57" value="Batch" style="text;html=1;align=center;verticalAlign=middle;whiteSpace=wrap;rounded=0;fontSize=34;" vertex="1" parent="1">
          <mxGeometry x="710" y="260" width="60" height="30" as="geometry" />
        </mxCell>
        <mxCell id="sH0vGf5td1xnZKwWSIzx-60" value="Realtime" style="text;html=1;align=center;verticalAlign=middle;whiteSpace=wrap;rounded=0;fontSize=34;" vertex="1" parent="1">
          <mxGeometry x="710" y="360" width="60" height="30" as="geometry" />
        </mxCell>
        <mxCell id="sH0vGf5td1xnZKwWSIzx-67" value="" style="rounded=1;whiteSpace=wrap;html=1;" vertex="1" parent="1">
          <mxGeometry x="1020" y="-37.5" width="131" height="350" as="geometry" />
        </mxCell>
        <mxCell id="sH0vGf5td1xnZKwWSIzx-61" value="&amp;nbsp;" style="text;whiteSpace=wrap;html=1;" vertex="1" parent="1">
          <mxGeometry x="900" y="-130" width="40" height="40" as="geometry" />
        </mxCell>
        <mxCell id="sH0vGf5td1xnZKwWSIzx-64" value="" style="sketch=0;outlineConnect=0;fontColor=#232F3E;gradientColor=none;fillColor=#7AA116;strokeColor=none;dashed=0;verticalLabelPosition=bottom;verticalAlign=top;align=center;html=1;fontSize=12;fontStyle=0;aspect=fixed;pointerEvents=1;shape=mxgraph.aws4.file_system;" vertex="1" parent="1">
          <mxGeometry x="1046.5" y="-19.5" width="78" height="73" as="geometry" />
        </mxCell>
        <mxCell id="sH0vGf5td1xnZKwWSIzx-65" value="&lt;div&gt;Filesystem&lt;/div&gt;" style="text;html=1;align=center;verticalAlign=middle;whiteSpace=wrap;rounded=0;" vertex="1" parent="1">
          <mxGeometry x="1046.5" y="-50" width="85" height="40" as="geometry" />
        </mxCell>
        <mxCell id="sH0vGf5td1xnZKwWSIzx-66" value="" style="shape=image;verticalLabelPosition=bottom;labelBackgroundColor=default;verticalAlign=top;aspect=fixed;imageAspect=0;image=data:image/png,iVBORw0KGgoAAAANSUhEUgAAAOEAAADhCAMAAAAJbSJIAAAAeFBMVEX///8AAAB9fX15eXn4+Pg+Pj6ZmZkvLy/z8/Pv7+/q6urn5+cdHR3Nzc38/PylpaWvr6+9vb0mJibT09NfX19KSkq0tLTDw8Nqamo6Ojrb29uLi4tLS0tlZWVaWlqdnZ2Hh4czMzMUFBQgICCSkpJycnJTU1MNDQ0YYUe4AAASzUlEQVR4nO1dZ3vyvA6GFsom7NUVeGj7///hKbHkyEOWnUH7nqv3NyA4ki1rWbY7nXZwun5eugl4eV63REk7mHymcIdMTn6a7HjsKvB3w/KnCY9FVQb/MyxOKjPY7Y5/mvgobGtw+PbTxMdgjdS+PsRjg386/TT5EXhQpA5GSf8ar9TfnluiqkkAqWkMfrOo/rZthaZmoSjdJP8PTGgLFDUNRehj8v8e/zj8NfjjkMMfh78Hfxxy+OPw9+D/ncPTtSaH118d6Y+yAcYIlTnsdvuLXgu0NYHZa7dEDQ5v//6NQdRi0KV4T27gyfj/9pclNHomed8YJrcxtFqYLlogtCLmzzZ/b1XyLeM3q5WvrHFSK2Fuj9/LIn0AFYYLm8nfMI5W6vDynhrcmxi9m6ny1b4hOqtibeqXQxOp+fXBaPP4k3p1/mjQcq03fCXG5sR+aKjZdCwNcWp2ymRftPGfMR09auBXzdOQURY3P+Dm0AH82rXyCoPH9oZxPjmd5u63H+TlTw285nvmfe7sgZrnVIu5VPROp4n7bRp2KovZt2zviaj0Q1XrRwGJ8sPM+n5CDOTFijqyfvH1Zx0BWk/L9mk7RHzOjSzd9soGr5Y7tCcqhyozYoenlWkwjXlf2yUioU0IaEen9F0+OqZJ+sAv10eDtoqT1DAGhQwV9q531l8cG4tWDUfGbpWI0rmYEmOqxgtU8nxsXx+GbFIS0+A60Yy+xXW4idR8S9LVQ1kVZXDwtNO9kCloa4VamOTlfPP4DvvytT7+vuUr/ZUnPVL7bOVpctuECjUww5HyOX/DvoeGVbbX/l269wotrgpGMqfxvB43fvQWR142Hh0aCmkeQvf3U1+GehS6pvdgNt6OE/ONCT8WC5OER/APThVJgr9p9dw5vZDW71S/tD5s6JxcEwq2ZU+gcKe1jeJNJ9selfa0qShJQGGu+sQDGKMev1ADiEo/SbWjBbYyZu/Fl4N7+flABOEGbLHlZ7zDgykdD8UfF/v74UeNeHQ+HI2+3fjJaDSM6iPt6HyQL7998Q9Hi8PQJtQOoP31eArzKr78aJbln2eqJqbnlzybCRk5/fSZjo6HALSW8RYaFPBn9B94DGfXUJ3i5n3Gd9l7+ZxAO7xiFUsVquXaXucke3F48nC54MaSmOFwjmQS9ZQGhjI1E0CT67kbi23m1xKTf/qRa/BlaK7jlGDa0wyWqfV7L/7woPS5gx2Oo5LH0IYjXiOl3vN7xwKm774pWUpq0LnGx2JmVuqsdTDMXeq73X/9w/M1Wyx2i+z9Kd/0fd589+qRGx0ChEsz47VjuuY14S7TdM/57uRGIsPTLncDBo9jMtKdETJ4AQtnId16GrCjkP41YA6++2P2fLT+4Zkdek6/BpoCL2UqUYg2qFo58syUvWMW08w4M7XS2Q0vdNYioG4YT9NGJS8WYSRRv9uID0onVyOJ/+AMuw4OA0bDFy24QBqr+GZ7SuQgNVxbnsm/v5zwTLPIp9Xm8MQH+0SnejR5Ax3AfpXc157ymNu/ahZ5ydiJT+gpnZwR+BZvspB4rqqHl7QRW9h0ZoyXQlDNgUpqzJCmh/A0/K6T4aCZCpsK9HGPIhW8JMN0T8/Mkez4R72lErpmZ9sNVNQ8fTDOX9zvWHKQnKQgRr5+EpUoLEujj/B7dozwCWaxQfiZR6ljgmosFvNyvckaLe3AsWY2PEg4lVMp0vtdGssxlo6R5VrhNOV1SUiQ5Wnqh+7xf81VFZbrk5a3jTaDdVxCyhI09UsiMZrBz7qrsRQ97ZNbo4jahu1N0LgD9xcUgMT8v7ZSjUxBgo2/YYxeWTnFueokNNDlSUxdaC3afM2L1l+mRs04DhAoyLZIYdSalrpY+KloBnqpxGRmK1CKwUNufl0tdbFuk8Gy1021gVESKzX+hAboi39JFOhV4rbKsvQoGq7ou5cDAkjQGWoYUwBpHglG5xXWXyOBesx0RUHrsykZHzeVktyoZVLtSwpw0hnTADlgAwQ3mZaSinPec2lzKap38XEDc4q1GK5W8WufMNC8tLw3Gc3bF1X+Ex/bFKij8DN6OklOCZqrtuuU0SAZ2xsehfmB3Y+pBlBZSX4zGoqmXRkX2JV0wDAMYuUH+gWVvNKJYqLRAOYbKpCcCnjTmX6HlX7sn9SKPKZjlCZNOs4AdVOjVUMMUKVRbwTNPhusK3WK2nQQ1kweRCXuGgNaRaonINnBRlHKzGCEAW58gq149ryzPeDSGc0Go45l/gLaFlcBwA0aRNdxobt2r/0eOCeo5e2HpgkWSuEQ6+NWYjM0MISeKLMlrNxB3AV0jd7Fo/M5OtqcRuWqcRbeQ80oYP6NfsdOFF3ZRJaqyJk5MYc1gVTf85AOcPKpOgWrb6eV6BFVJCVHy4EfRD/zcu8h1INIo7u1PU43GBWGe08Lbk95AN3BJ9fbwMAleuqKqVG+aM24Ca18WQUXLkAMWivA9AJop25JbjNibDN7cbPGRuF6IGmKPmGD5EcAtRuxaCCmOsGwlxkgNSIBJxX0zL2PO8rdGaS+0eWFZHMIu1I8Khd++FeBqb33tnlwYqgCP5ikatpfQ0tLeqcG+wRYlgqLqDVxVi8m1C9NSkDFi7t43BltInOl5T6A2UE9xULn6RgRBFDylWGIeP8NNOn9D8eznOkCi4+8JAS6QMqqgEZlvbdelJDOnwfT6XT14UyIyWFKMdhcTZnabVfPnMdxFuYPxJGSFXsS9MhMUFYKeuXIotZ3pCLdXltMAc6VyIUxGkeRhk44+zv0QHg2l5bJep13p1F3oPtTfWaM8V7SAOp3KVehROHM/v4m9ECBclXYqhnwbe0h4wJTgFECYPT52ra+QDtthT+ZRP0enoYjQrvpnnMcguIKcwhRIltogempsDKF6J2VZZD1PNgIrU80I1SWQ9XxAocQL7GxD8ygcCkJ+HqsWzoTfi9gnLNg0KM4vLx9KryV7n4xuwQOwftmdcBS+D3qIRieoM0pi3pvMHI5ikMi43OMdwrvUuBw5mmRQhoeygFrLB4EQbkBtDq4GMaUdTgs++M2YQUOpSk0IeLAAnJM7GRVYhWuAQeS51O3tzwcYqfeYhWBw7mqSmOV6bxsiQeMEfv72UOiBTBbG5z4tMt9HEKP3NYuBQ6ltwOH4RXpQ3iMoBeDqW6wmHvUu3R7mJdD9YebEZA4fBMkSC1vh5ekVTKczaINZTnAbHFHO+nEJHo5LMM8icNHYQ6p5sNr0sfwMyOBhI6eVnlHK2bSp14O1Ze3rILEISQh2Ny80hLhFJkyZaxrB4IX0lYQQhf2pGv3uY9DEhVJHEomXQlNOBWvJJndbAHUBNYrQPmrfnywH/dx+Fn2msRhJnAozdMbLnU5NBJGYILLae3hEL30m2cqcbgoH/VCteXsfDUgWBwYoUCQ2TWmCqyoaJMI3v96htDpveKVEoc7qzkbysngXfMb6o7hntDb0YkFbRJZz1uNyz3GUM1DVtOMJA5B5vbm89qDYDlUUn2Peah0KVsbBRSza8tgDMteBOcUTSLHIbghEofvAocxuvRcPMPaw2FcJ08/twovqj3tBDEc5p04Dpuwh8qnYT0/IIH1aQY27YhegMPBzGqe5TA3GnMR49MoqeIlWSlHTteeHOoRC5bDN6KYJQ43AnUqmgkXiEixxTE4xt7tsfQfYC1me8DaPChN4jD8dowtcp69jhwfKm3FFdqyDKIN8/qlJSQOBVsGHIYTppK2gh7wz3VjAc+Cem09DqXIJirGl/I0YHP9eRowhqsBxVl9qQxIPQ7BCWStMeRxwvUk0kPwEq/bRiJDChol1uNwJ3S/9HsBCI9Ykw4mP/f9lvl/o1FiPQ5BDbLmUDKXBUR11OVppJGh22RhxepxqASed6yhElVYQFQGjy8GslaWKdQvrs8EuYebNq3F4ZwIgxfK35CqYKQbezJe1pW9dTXZuhQe1cvSqgijBUBHSGtP0lkJYA5YcwHk+mxOMdEvHhkp3MXCuVb6nF8/XoQG4dk/CzTE5WtCZkAfzQMTcf95efRO8+u0Dyp+8jo9hKo4ltvVMzePzoJ4gUqT9k+eJFHYCIPcGnzr+Aau5XwPQVyGBJt//8PSQQPwGZSoxdvOGkSBzwT82P1oZ0l41O/dY8jij8vlaf6hn62J4oM/vYknUBNF6toC2/QyXpu2iVycHSX1jD41ahMD3is4buGcXePw1CbaMI49djWqUV86iKkvve+lBUB+0Jwb5//Y5dxGaCfoSXj2vjXCQLxQeW2c4cQWQct13tOotzUKIFA8gMyo8yYEkgKYz/ha/Tb3jto4q1dGVETSk2TLSasLZ+P2W+AunfvdpI0yFrULqdxvocOQ5D0zYFbuV0ULedhYC+Xsmam87+le5fq+fU9B4L4nlGoQ0oQNvdfUV9aCb++aAPCA0L0epMucLeitAtVEyn+Ub4kJhwp7SLFY6x4WA9VMUmm5uYe0LIaIh1jT3xjQXxPqRi1cDLl0CgoigIsw7cspxjtJtglkLIePMdYms6+WQueh7VAY9WjSdYP2fvyIMxVUnxiHTuN5Du0Git4zFUTYZypEnIvhqRjDMwf+tbndWR8QkySjntN2fCe6GIC/GHKKHdVmQuMM70iLtyFjQ/108Whd+I9pM3FNuz1tg5YwzT/0nrYjnTGE08GwSTokaeuMIX0YVtp9KF6JFM+JOvjepe+/aSdpo2O9tCCG0SrSWV845c2OydpkkTnrSwJ3eLl4XhsyY8YT9z+vTQR2jKPixesCzup3K5GgdzI1rW42FRtmz9yTz01kztrQlGybtIvDMzabFBB0QucmagvOJjKu/jfqMwymDZ59iW0mJ4OCBwWD8eFTvQUv7uJfeUxDU7cwsueXygiKtnwG7TLPfJap3FXYiL6Zl6snySf8CAcFX8M/8yjPEb7UP9uMP0dYhjhIwSEOgZxH4Z4Yn4RhOYAVAjPpLGg9TdMH4h7necdTEdAHsDZY5Ux2UlhZ+Uz22bls5Fjhbj75TPZa5+rTmzu2VXic0WuT8goNxJyrH31L2/j92WFiTa/a3KZajiW9ycO9GyECcUesoYMteNJFUOGYhrl5hWDC/RbjJ+F+ixjE3W8ReUcJt/HkZJY5R95RsjDvKKl4mXrkHSVx98yg2fG4VNY1jLd7ZoKvW1/te2aqJu9i75mJuitIX1A8cJ0Dz11BR/auIPfSssoH+8TfFYRuZnBfRjnhPBI1dHnsqvuenm73PS132dP18SX6vqdIJBwUHHXwdel5+IRq7r19VsLKe2dXJJIOCo66d6288cGfjJ5tHA7CeK21yJN071rk3Xnl3oqVv9+GUVcDKrwsaq5EJt6GF3f/IdGanEAPF84F2h4cdrULHRPvP4ydteQu7T7bGfNTFuBy9bFo5Cjp5NvwIjXvmOiToBN0u4f07fiPstY/XJenpjI7FW7DgxS4Yz1Hj91pTj6T4VnJzfeGSXfJevEw/Xpo4C5ZzgNSOYIjoY+6MG/tF2RCjYX3muLE3ITPi13qG5WJtzmhTtdjy7XRuvDHqGyqeBse/Ivcy03dYxrcPJHvu49tjiNRbd2XuvdyO3erW3e30xB5YgQUm9ZqwazLI7HCsHLUDmSvhp7Gu5bzYAYU510rq8LuSWiFGR6Cik7PvJQ3rCy9XmafzrmeGft2PxqvsxmdPTSssqX28ivYVf/pcaQW3LCWE+vxr7xRJkmJdnbpelBlYWjoaedq5A1Nx3Xi+NqHXVPnR5Z+/nRs6TZAhcycZ9Pra0HwuOzDgSkaJ9c/Wx2yde3yvlPpDW2LxkaOfFUUGJPFcqcGGSzLBo0tlQt4yxezSWVbSea4jtSshFDlqvoTMedUGRMxsY+NHmXTLoNVpaWpGZl2lAay9+BYxwjvlYe6tcISmsT/sKfA2rw0lyBd342p52sxAtcIb2pvixieRq59m9Mp56707P2KOKk2rWNltTyJ3vnIk+FqDHSHysX1J+az57PDYdp9UsET1u+B4Rt5v3eOjXYP5lEgSTWwC2r3Dve5K8SGsdGIucR5OFs84IpLSgHczlBYPzCACj1jul0y1vLNT7PsKZ7MoWnT7338u4G16bI+NBE8nUyjur33Tkcb1kJFv2ZecPRu9lnl1dYGMb+aPHZfd1WZnC8tv+/rvldMsOg5CxWVUjaTN6uV6f23U7PoOe5+uiUeWS2sfsn4aexM0yeuUzowhf3zxwxEADM6iVIdtPKW2xsa0cltYFTmO2pwuK27TNMuTteaHD791uErUZPDFihqGn8ccvjj8Pfgj0MOfxz+HvxxyOG/xmHyNgLxlqLfA8iTpybxIXi6/31u6YBiqWMai+Oz+tuPZp0ioXf0vD7EQy/2tHsXfUOIL2dzkZgV/yH4LleLxe8PnQrsZE4YNLU1rHXYxd7/dwxaZ6PFIuY66V+Edf7irZlg2UvYnZGG/wGznNNrSsCsfgAAAABJRU5ErkJggg==;" vertex="1" parent="1">
          <mxGeometry x="1052.01" y="78.5" width="74" height="74" as="geometry" />
        </mxCell>
        <mxCell id="sH0vGf5td1xnZKwWSIzx-68" value="" style="shape=cylinder3;whiteSpace=wrap;html=1;boundedLbl=1;backgroundOutline=1;size=15;" vertex="1" parent="1">
          <mxGeometry x="1040.5" y="192.5" width="90" height="100" as="geometry" />
        </mxCell>
        <mxCell id="sH0vGf5td1xnZKwWSIzx-69" value="Database" style="text;html=1;align=center;verticalAlign=middle;whiteSpace=wrap;rounded=0;" vertex="1" parent="1">
          <mxGeometry x="1040.5" y="165" width="85" height="40" as="geometry" />
        </mxCell>
        <mxCell id="sH0vGf5td1xnZKwWSIzx-70" value="" style="shape=flexArrow;endArrow=classic;html=1;rounded=0;fillColor=#d5e8d4;strokeColor=#82b366;" edge="1" parent="1" source="sH0vGf5td1xnZKwWSIzx-16" target="sH0vGf5td1xnZKwWSIzx-7">
          <mxGeometry width="50" height="50" relative="1" as="geometry">
            <mxPoint x="2049" y="158" as="sourcePoint" />
            <mxPoint x="2150" y="172" as="targetPoint" />
          </mxGeometry>
        </mxCell>
        <mxCell id="sH0vGf5td1xnZKwWSIzx-72" value="Azure" style="text;html=1;align=center;verticalAlign=middle;whiteSpace=wrap;rounded=0;fontSize=24;" vertex="1" parent="1">
          <mxGeometry x="1891" y="-100" width="141" height="40" as="geometry" />
        </mxCell>
        <mxCell id="sH0vGf5td1xnZKwWSIzx-74" value="Synapse integration runtime" style="text;html=1;align=center;verticalAlign=middle;whiteSpace=wrap;rounded=0;fontSize=24;" vertex="1" parent="1">
          <mxGeometry x="1250" y="60" width="141" height="40" as="geometry" />
        </mxCell>
        <mxCell id="sH0vGf5td1xnZKwWSIzx-76" value="&amp;nbsp;" style="text;whiteSpace=wrap;html=1;" vertex="1" parent="1">
          <mxGeometry x="750" y="390" width="40" height="40" as="geometry" />
        </mxCell>
        <mxCell id="sH0vGf5td1xnZKwWSIzx-78" value="&amp;nbsp;" style="text;whiteSpace=wrap;html=1;" vertex="1" parent="1">
          <mxGeometry x="1700" y="140" width="40" height="40" as="geometry" />
        </mxCell>
        <mxCell id="sH0vGf5td1xnZKwWSIzx-79" value="&amp;nbsp;" style="text;whiteSpace=wrap;html=1;" vertex="1" parent="1">
          <mxGeometry x="710" y="420" width="40" height="40" as="geometry" />
        </mxCell>
        <mxCell id="sH0vGf5td1xnZKwWSIzx-80" value="&amp;nbsp;" style="text;whiteSpace=wrap;html=1;" vertex="1" parent="1">
          <mxGeometry x="1260" y="460" width="40" height="40" as="geometry" />
        </mxCell>
        <mxCell id="sH0vGf5td1xnZKwWSIzx-81" value="&amp;nbsp;" style="text;whiteSpace=wrap;html=1;" vertex="1" parent="1">
          <mxGeometry x="300" y="560" width="40" height="40" as="geometry" />
        </mxCell>
        <mxCell id="sH0vGf5td1xnZKwWSIzx-83" value="" style="editableCssRules=.*;html=1;shape=image;verticalLabelPosition=bottom;labelBackgroundColor=#ffffff;verticalAlign=top;aspect=fixed;imageAspect=0;image=data:image/svg+xml,PHN2ZyB4bWxucz0iaHR0cDovL3d3dy53My5vcmcvMjAwMC9zdmciIHhtbG5zOnY9Imh0dHBzOi8vdmVjdGEuaW8vbmFubyIgd2lkdGg9IjE2LjAwMDAwMTkwNzM0ODYzMyIgaGVpZ2h0PSIxNi4wMDAwMDE5MDczNDg2MzMiIHZpZXdCb3g9Ii03LjE4NzExMDA2NTA3Mzg4N2UtMTMgLTIuNDg2ODk5MTA5MjkyMjI5N2UtMTUgMTYuMDAwMDAxOTA3MzQ4NjMzIDE2LjAwMDAwMTkwNzM0ODYzMyI+JiN4YTsJPHN0eWxlIHR5cGU9InRleHQvY3NzIj4mI3hhOwkuc3Qwe2ZpbGw6IzQyODVmNDt9JiN4YTsJPC9zdHlsZT4mI3hhOwk8cGF0aCBjbGFzcz0ic3QwIiBkPSJNOS44NCA1Ljc3SDYuMTZhLjM5LjM5IDAgMCAwLS4zOS4zOXYzLjY4YS4zOS4zOSAwIDAgMCAuMzkuMzloMy42N2EuMzkuMzkgMCAwIDAgLjM5LS4zOVY2LjE2YS4zOS4zOSAwIDAgMC0uMzktLjM5bTUuODItLjI5YS4zNS4zNSAwIDAgMCAuMzUtLjM1di0uNTdhLjM1LjM1IDAgMCAwLS4zNS0uMzVoLTEuNzlWMi41NGEuMzkuMzkgMCAwIDAtLjM5LS4zOUgxMS44Vi4zNWEuMzUuMzUgMCAwIDAtLjM1LS4zNWgtLjU4YS4zNS4zNSAwIDAgMC0uMzUuMzV2MS43OUg4LjYzVi4zNUEuMzUuMzUgMCAwIDAgOC4yOSAwaC0uNThhLjM1LjM1IDAgMCAwLS4zNS4zNXYxLjc5SDUuNDhWLjM1QS4zNS4zNSAwIDAgMCA1LjEzIDBoLS41OGEuMzUuMzUgMCAwIDAtLjM1LjM1djEuNzlIMi41M2EuMzkuMzkgMCAwIDAtLjM5LjM5VjQuMkguMzVhLjM1LjM1IDAgMCAwLS4zNS4zNXYuNThhLjM1LjM1IDAgMCAwIC4zNS4zNWgxLjc5djEuODhILjM1YS4zNS4zNSAwIDAgMC0uMzUuMzV2LjU4YS4zNS4zNSAwIDAgMCAuMzUuMzVoMS43OXYxLjg5SC4zNWEuMzUuMzUgMCAwIDAtLjM1LjM1di41N2EuMzUuMzUgMCAwIDAgLjM1LjM1aDEuNzl2MS42N2EuMzkuMzkgMCAwIDAgLjM5LjM5SDQuMnYxLjc5YS4zNS4zNSAwIDAgMCAuMzUuMzVoLjU4YS4zNS4zNSAwIDAgMCAuMzUtLjM1di0xLjc5aDEuODh2MS43OWEuMzUuMzUgMCAwIDAgLjM1LjM1aC41OGEuMzUuMzUgMCAwIDAgLjM1LS4zNXYtMS43OWgxLjg5djEuNzlhLjM1LjM1IDAgMCAwIC4zNS4zNWguNTdhLjM1LjM1IDAgMCAwIC4zNS0uMzV2LTEuNzloMS42OGEuMzkuMzkgMCAwIDAgLjM5LS4zOVYxMS44aDEuNzlhLjM1LjM1IDAgMCAwIC4zNC0uMzV2LS41N2EuMzUuMzUgMCAwIDAtLjM1LS4zNWgtMS43OVY4LjY0aDEuNzlhLjM1LjM1IDAgMCAwIC4zNS0uMzV2LS41OGEuMzUuMzUgMCAwIDAtLjM1LS4zNWgtMS43OVY1LjQ4em0tMy4xMSA3LjA3SDMuNDVWMy40Nmg5LjA5eiIvPiYjeGE7PC9zdmc+;" vertex="1" parent="1">
          <mxGeometry x="1770" y="510" width="101" height="101" as="geometry" />
        </mxCell>
        <mxCell id="sH0vGf5td1xnZKwWSIzx-84" value="" style="shape=flexArrow;endArrow=classic;html=1;rounded=0;fillColor=#e1d5e7;strokeColor=#9673a6;exitX=0;exitY=0;exitDx=0;exitDy=0;entryX=1;entryY=0;entryDx=0;entryDy=15;entryPerimeter=0;" edge="1" parent="1" source="sH0vGf5td1xnZKwWSIzx-83" target="sH0vGf5td1xnZKwWSIzx-39">
          <mxGeometry width="50" height="50" relative="1" as="geometry">
            <mxPoint x="1955" y="497" as="sourcePoint" />
            <mxPoint x="1812" y="505" as="targetPoint" />
          </mxGeometry>
        </mxCell>
        <mxCell id="sH0vGf5td1xnZKwWSIzx-85" value="Proxy" style="text;html=1;align=center;verticalAlign=middle;whiteSpace=wrap;rounded=0;fontSize=24;" vertex="1" parent="1">
          <mxGeometry x="1750" y="470" width="141" height="40" as="geometry" />
        </mxCell>
        <mxCell id="sH0vGf5td1xnZKwWSIzx-86" value="GCP" style="text;html=1;align=center;verticalAlign=middle;whiteSpace=wrap;rounded=0;fontSize=24;" vertex="1" parent="1">
          <mxGeometry x="1872" y="350" width="141" height="40" as="geometry" />
        </mxCell>
        <mxCell id="sH0vGf5td1xnZKwWSIzx-88" value="" style="shape=flexArrow;endArrow=classic;html=1;rounded=0;fillColor=#e1d5e7;strokeColor=#9673a6;exitX=0.927;exitY=0.959;exitDx=0;exitDy=0;exitPerimeter=0;" edge="1" parent="1" source="sH0vGf5td1xnZKwWSIzx-83" target="sH0vGf5td1xnZKwWSIzx-14">
          <mxGeometry width="50" height="50" relative="1" as="geometry">
            <mxPoint x="1131" y="630" as="sourcePoint" />
            <mxPoint x="1780" y="621" as="targetPoint" />
          </mxGeometry>
        </mxCell>
      </root>
    </mxGraphModel>
  </diagram>
</mxfile>
